<svg width="14" height="14" viewBox="0 0 14 14" fill="none" xmlns="http://www.w3.org/2000/svg">
<path d="M6.13251 3.54445L4.10272 1.20159C3.86872 0.931608 3.43973 0.932808 3.16793 1.20519L1.49874 2.87729C1.00194 3.37466 0.85974 4.11322 1.14714 4.70538C2.8641 8.26015 5.73114 11.1311 9.28369 12.8529C9.87529 13.1403 10.6133 12.9981 11.1101 12.5007L12.7949 10.813C13.0679 10.54 13.0685 10.1087 12.7961 9.87467L10.4441 7.85579C10.1981 7.64461 9.81589 7.6722 9.56929 7.91939L8.7509 8.73894C8.709 8.78285 8.65385 8.81179 8.59391 8.82133C8.53397 8.83087 8.47256 8.82047 8.4191 8.79174C7.08137 8.02144 5.97171 6.91039 5.20312 5.57173C5.17433 5.51818 5.16391 5.45667 5.17345 5.39663C5.18299 5.3366 5.21196 5.28134 5.25592 5.23935L6.07191 4.4228C6.31911 4.17441 6.34611 3.79104 6.13251 3.54445Z" stroke="#020E35" stroke-linecap="round" stroke-linejoin="round"/>
</svg>
